<?xml version="1.0" standalone="no"?>
<!DOCTYPE svg PUBLIC "-//W3C//DTD SVG 20010904//EN"
 "http://www.w3.org/TR/2001/REC-SVG-20010904/DTD/svg10.dtd">
<svg version="1.0" xmlns="http://www.w3.org/2000/svg"
 width="355.000000pt" height="355.000000pt" viewBox="0 0 355.000000 355.000000"
 preserveAspectRatio="xMidYMid meet">
<metadata>
Created by potrace 1.14, written by Peter Selinger 2001-2017
</metadata>
<g transform="translate(0.000000,355.000000) scale(0.100000,-0.100000)"
fill="#000000" stroke="none">
<path d="M0 1775 l0 -1775 1775 0 1775 0 0 1775 0 1775 -1775 0 -1775 0 0
-1775z m2875 1071 c77 -20 149 -35 160 -34 19 3 20 -4 23 -164 2 -159 1 -168
-16 -168 -16 0 -20 9 -24 49 -10 104 -76 174 -201 213 -96 30 -301 32 -392 4
-140 -42 -242 -123 -293 -234 -22 -47 -26 -72 -27 -137 0 -69 5 -89 31 -146
53 -112 168 -204 309 -248 68 -22 375 -145 375 -151 0 -3 -129 -4 -287 -2
l-287 3 -64 32 c-37 18 -97 62 -138 100 -122 113 -173 246 -160 411 16 196
109 337 278 422 199 100 449 118 713 50z m-1151 -38 c3 -29 6 -113 6 -185 0
-111 -2 -133 -15 -133 -8 0 -17 12 -21 28 -23 107 -59 169 -114 197 -35 18
-263 30 -382 20 l-88 -7 0 -459 0 -459 -110 0 -110 0 0 459 0 459 -87 7 c-48
4 -151 5 -228 1 -125 -6 -144 -10 -177 -31 -41 -27 -84 -105 -94 -172 -5 -33
-11 -43 -25 -43 -18 0 -19 11 -19 185 l0 185 729 0 728 0 7 -52z m-1386 -1045
c-2 -14 -15 -19 -51 -21 l-47 -3 0 -125 c0 -117 -1 -124 -20 -124 -19 0 -20 7
-20 125 l0 125 -45 0 c-38 0 -45 3 -45 20 0 19 7 20 116 20 105 0 115 -2 112
-17z m181 -115 c29 -73 56 -139 58 -146 4 -10 -1 -13 -17 -10 -17 2 -27 15
-39 46 l-15 42 -58 0 -59 0 -19 -45 c-11 -25 -26 -45 -35 -45 -8 0 -15 4 -15
10 0 5 23 71 51 145 45 116 55 135 74 135 18 0 29 -19 74 -132z m295 111 c43
-34 35 -99 -17 -126 -25 -13 -28 -17 -15 -24 14 -8 78 -101 78 -114 0 -3 -9
-5 -20 -5 -12 0 -33 21 -59 59 -42 62 -55 71 -102 71 l-29 0 0 -65 c0 -58 -2
-65 -20 -65 -19 0 -20 7 -20 145 l0 145 89 0 c74 0 92 -3 115 -21z m126 -104
l0 -125 70 0 c63 0 70 -2 70 -20 0 -19 -7 -20 -90 -20 l-90 0 0 145 c0 138 1
145 20 145 19 0 20 -7 20 -125z m359 -7 c29 -73 55 -139 58 -145 3 -8 -3 -13
-15 -13 -15 0 -27 13 -41 45 l-20 45 -58 0 -59 0 -14 -42 c-9 -25 -22 -44 -32
-46 -10 -2 -18 1 -18 7 0 6 23 72 51 146 45 116 55 135 74 135 18 0 29 -19 74
-132z m206 20 l75 -113 0 113 c0 105 1 112 20 112 19 0 20 -7 20 -145 0 -138
-1 -145 -20 -145 -14 0 -41 32 -95 112 l-75 113 0 -113 c0 -105 -1 -112 -20
-112 -19 0 -20 7 -20 145 0 138 1 145 20 145 14 0 41 -32 95 -112z m469 87
c14 -13 26 -31 26 -38 0 -28 -27 -25 -49 4 -16 21 -30 29 -52 29 -40 0 -69
-16 -69 -39 0 -26 19 -39 79 -53 97 -22 128 -82 72 -139 -26 -25 -37 -29 -86
-29 -49 0 -60 4 -87 30 -29 30 -34 60 -11 67 7 3 18 -7 24 -20 20 -44 85 -60
127 -31 24 17 29 46 10 62 -7 5 -39 17 -71 26 -95 28 -124 80 -72 131 35 36
120 36 159 0z m282 7 c12 -9 27 -27 33 -39 18 -36 -16 -38 -46 -3 -32 38 -79
41 -120 6 -25 -22 -28 -30 -28 -91 0 -61 3 -69 28 -91 15 -13 41 -24 56 -24
32 0 81 34 81 56 0 8 9 14 20 14 24 0 25 -13 3 -50 -21 -35 -52 -50 -107 -50
-126 0 -175 187 -70 269 34 27 119 29 150 3z m134 -42 l0 -60 75 0 75 0 0 60
c0 53 2 60 20 60 19 0 20 -7 20 -145 0 -137 -1 -145 -20 -145 -17 0 -19 8 -22
68 l-3 67 -72 3 -73 3 0 -71 c0 -63 -2 -70 -20 -70 -19 0 -20 7 -20 145 0 138
1 145 20 145 18 0 20 -7 20 -60z m454 39 c37 -29 56 -71 56 -124 0 -91 -51
-145 -135 -145 -84 0 -135 54 -135 145 0 91 51 145 135 145 38 0 60 -6 79 -21z
m327 -18 c38 -37 39 -41 39 -106 0 -65 -1 -69 -39 -106 -34 -35 -44 -39 -87
-39 -31 0 -61 7 -82 20 -79 48 -83 189 -7 248 21 17 41 22 83 22 50 0 58 -3
93 -39z m129 -86 l0 -125 70 0 c63 0 70 -2 70 -20 0 -19 -7 -20 -90 -20 l-90
0 0 145 c0 138 1 145 20 145 19 0 20 -7 20 -125z m-2198 -524 c3 -315 4 -331
24 -357 11 -15 33 -31 48 -35 30 -8 56 -27 56 -40 0 -5 -106 -9 -236 -9 -269
0 -280 4 -154 60 8 4 23 22 32 41 16 30 18 67 18 305 0 149 3 292 6 318 l7 46
98 0 98 0 3 -329z m2125 292 c4 -21 8 -94 8 -163 0 -181 -40 -287 -149 -395
-94 -94 -199 -147 -360 -181 -191 -40 -370 -27 -571 41 -71 24 -151 47 -177
51 l-48 6 0 184 c0 173 1 184 19 184 14 0 19 -10 24 -49 12 -99 83 -198 175
-245 82 -41 223 -69 352 -70 180 -1 287 40 386 147 70 75 102 139 121 241 19
101 12 183 -21 243 l-25 43 129 0 129 0 8 -37z"/>
<path d="M425 1689 c-10 -30 -20 -60 -23 -66 -3 -9 9 -13 43 -13 52 0 51 -6
16 84 l-18 49 -18 -54z"/>
<path d="M650 1699 l0 -51 66 4 c69 4 84 14 84 56 0 28 -33 42 -101 42 l-49 0
0 -51z"/>
<path d="M1205 1689 c-10 -30 -20 -60 -23 -66 -3 -9 9 -13 43 -13 52 0 51 -6
16 84 l-18 49 -18 -54z"/>
<path d="M2699 1721 c-25 -26 -29 -37 -29 -86 0 -49 4 -60 29 -86 22 -21 39
-29 66 -29 27 0 44 8 66 29 25 26 29 37 29 86 0 49 -4 60 -29 86 -22 21 -39
29 -66 29 -27 0 -44 -8 -66 -29z"/>
<path d="M3014 1727 c-51 -44 -41 -166 15 -197 37 -19 81 -12 112 19 25 26 29
37 29 86 0 49 -4 60 -29 86 -37 37 -88 39 -127 6z"/>
</g>
</svg>
