<svg width="16" height="11" viewBox="0 0 16 11" fill="none" xmlns="http://www.w3.org/2000/svg">
<g clip-path="url(#clip0_10_39)">
<path fill-rule="evenodd" clip-rule="evenodd" d="M10.6667 5.5C10.6667 6.85001 9.47274 7.94445 8.00001 7.94445C6.52725 7.94445 5.33334 6.85001 5.33334 5.5C5.33334 4.14997 6.52725 3.05556 8.00001 3.05556C9.47274 3.05556 10.6667 4.14997 10.6667 5.5ZM9.33334 5.5C9.33334 6.17503 8.73641 6.72222 8.00001 6.72222C7.26361 6.72222 6.66668 6.17503 6.66668 5.5C6.66668 4.82497 7.26361 4.27778 8.00001 4.27778C8.73641 4.27778 9.33334 4.82497 9.33334 5.5Z" fill="#fff"/>
<path fill-rule="evenodd" clip-rule="evenodd" d="M8.00001 0C11.7277 0 14.8599 2.33708 15.7479 5.5C14.8599 8.66293 11.7277 11 8.00001 11C4.27233 11 1.14013 8.66293 0.252045 5.5C1.14013 2.33708 4.27233 0 8.00001 0ZM8.00001 9.77778C5.0163 9.77778 2.48756 7.97995 1.63816 5.5C2.48756 3.02003 5.0163 1.22222 8.00001 1.22222C10.9837 1.22222 13.5125 3.02003 14.3619 5.5C13.5125 7.97995 10.9837 9.77778 8.00001 9.77778Z" fill="#fff"/>
</g>
<defs>
<clipPath id="clip0_10_39">
<rect width="16" height="11" fill="white"/>
</clipPath>
</defs>
</svg>
